<svg width="800" height="600" xmlns="http://www.w3.org/2000/svg"><rect width="800" height="600" fill="#f5f5f5"/><rect x="50" y="50" width="700" height="500" fill="#ffffff" stroke="#cccccc" stroke-width="2" rx="10" ry="10"/><text x="400" y="100" font-family="Arial" font-size="24" text-anchor="middle" fill="#333333">Gelişim Alanları ve İş Eşleştirme</text><rect x="100" y="150" width="280" height="200" fill="#f9f9f9" stroke="#cccccc" stroke-width="1" rx="5" ry="5"/><text x="240" y="180" font-family="Arial" font-size="18" text-anchor="middle" font-weight="bold" fill="#333333">Gelişim Alanları</text><text x="120" y="220" font-family="Arial" font-size="14" fill="#333333">• Yazılım çeşitliliğini artırın</text><text x="120" y="250" font-family="Arial" font-size="14" fill="#333333">• Sektör deneyimini genişletin</text><text x="120" y="280" font-family="Arial" font-size="14" fill="#333333">• Takım liderliği deneyimi kazanın</text><text x="120" y="310" font-family="Arial" font-size="14" fill="#333333">• DevOps becerilerini geliştirin</text><rect x="420" y="150" width="280" height="350" fill="#f9f9f9" stroke="#cccccc" stroke-width="1" rx="5" ry="5"/><text x="560" y="180" font-family="Arial" font-size="18" text-anchor="middle" font-weight="bold" fill="#333333">İş Eşleştirme</text><rect x="440" y="200" width="240" height="80" fill="#ffffff" stroke="#e0e0e0" stroke-width="1" rx="5" ry="5"/><text x="450" y="225" font-family="Arial" font-size="16" font-weight="bold" fill="#333333">Tam Yığın Geliştirici</text><text x="450" y="250" font-family="Arial" font-size="14" fill="#666666">TechCorp Inc. - Melbourne</text><text x="450" y="270" font-family="Arial" font-size="14" fill="#4caf50">%85 Eşleşme</text><rect x="440" y="290" width="240" height="80" fill="#ffffff" stroke="#e0e0e0" stroke-width="1" rx="5" ry="5"/><text x="450" y="315" font-family="Arial" font-size="16" font-weight="bold" fill="#333333">Frontend Geliştirici</text><text x="450" y="340" font-family="Arial" font-size="14" fill="#666666">WebSolutions - Sydney</text><text x="450" y="360" font-family="Arial" font-size="14" fill="#4caf50">%78 Eşleşme</text><rect x="440" y="380" width="240" height="40" fill="#4285f4" rx="5" ry="5"/><text x="560" y="405" font-family="Arial" font-size="16" text-anchor="middle" fill="#ffffff">Tüm Eşleşen İşleri Görüntüle</text><rect x="100" y="380" width="280" height="120" fill="#f9f9f9" stroke="#cccccc" stroke-width="1" rx="5" ry="5"/><text x="240" y="410" font-family="Arial" font-size="18" text-anchor="middle" font-weight="bold" fill="#333333">Tavsiye Edilen Eylemler</text><text x="120" y="440" font-family="Arial" font-size="14" fill="#333333">• Açık kaynak projelere katkıda bulunun</text><text x="120" y="470" font-family="Arial" font-size="14" fill="#333333">• Çevrimiçi kurslara katılın</text></svg>