<svg width="800" height="600" xmlns="http://www.w3.org/2000/svg"><rect width="800" height="600" fill="#f5f5f5"/><rect x="50" y="50" width="700" height="500" fill="#ffffff" stroke="#cccccc" stroke-width="2" rx="10" ry="10"/><text x="400" y="100" font-family="Arial" font-size="24" text-anchor="middle" fill="#333333">İş Başvuru Takipçisi - Takvim Görünümü</text><line x1="100" y1="150" x2="700" y2="150" stroke="#cccccc" stroke-width="1"/><text x="150" y="180" font-family="Arial" font-size="14" text-anchor="middle" fill="#333333">Pazartesi</text><text x="250" y="180" font-family="Arial" font-size="14" text-anchor="middle" fill="#333333">Salı</text><text x="350" y="180" font-family="Arial" font-size="14" text-anchor="middle" fill="#333333">Çarşamba</text><text x="450" y="180" font-family="Arial" font-size="14" text-anchor="middle" fill="#333333">Perşembe</text><text x="550" y="180" font-family="Arial" font-size="14" text-anchor="middle" fill="#333333">Cuma</text><text x="650" y="180" font-family="Arial" font-size="14" text-anchor="middle" fill="#333333">Cumartesi</text><line x1="100" y1="190" x2="700" y2="190" stroke="#cccccc" stroke-width="1"/><rect x="110" y="200" width="80" height="80" fill="#ffffff" stroke="#cccccc" stroke-width="1"/><text x="150" y="230" font-family="Arial" font-size="12" text-anchor="middle" fill="#333333">1</text><rect x="210" y="200" width="80" height="80" fill="#ffffff" stroke="#cccccc" stroke-width="1"/><text x="250" y="230" font-family="Arial" font-size="12" text-anchor="middle" fill="#333333">2</text><rect x="310" y="200" width="80" height="80" fill="#ffffff" stroke="#cccccc" stroke-width="1"/><text x="350" y="230" font-family="Arial" font-size="12" text-anchor="middle" fill="#333333">3</text><rect x="410" y="200" width="80" height="80" fill="#ffffff" stroke="#cccccc" stroke-width="1"/><text x="450" y="230" font-family="Arial" font-size="12" text-anchor="middle" fill="#333333">4</text><rect x="510" y="200" width="80" height="80" fill="#ffffff" stroke="#cccccc" stroke-width="1"/><text x="550" y="230" font-family="Arial" font-size="12" text-anchor="middle" fill="#333333">5</text><rect x="610" y="200" width="80" height="80" fill="#ffffff" stroke="#cccccc" stroke-width="1"/><text x="650" y="230" font-family="Arial" font-size="12" text-anchor="middle" fill="#333333">6</text><rect x="110" y="290" width="80" height="80" fill="#ffffff" stroke="#cccccc" stroke-width="1"/><text x="150" y="320" font-family="Arial" font-size="12" text-anchor="middle" fill="#333333">7</text><rect x="210" y="290" width="80" height="80" fill="#ffffff" stroke="#cccccc" stroke-width="1"/><text x="250" y="320" font-family="Arial" font-size="12" text-anchor="middle" fill="#333333">8</text><rect x="310" y="290" width="80" height="80" fill="#ffffff" stroke="#cccccc" stroke-width="1"/><text x="350" y="320" font-family="Arial" font-size="12" text-anchor="middle" fill="#333333">9</text><rect x="410" y="290" width="80" height="80" fill="#ffffff" stroke="#cccccc" stroke-width="1"/><text x="450" y="320" font-family="Arial" font-size="12" text-anchor="middle" fill="#333333">10</text><rect x="510" y="290" width="80" height="80" fill="#ffffff" stroke="#cccccc" stroke-width="1"/><text x="550" y="320" font-family="Arial" font-size="12" text-anchor="middle" fill="#333333">11</text><rect x="610" y="290" width="80" height="80" fill="#ffffff" stroke="#cccccc" stroke-width="1"/><text x="650" y="320" font-family="Arial" font-size="12" text-anchor="middle" fill="#333333">12</text><rect x="220" y="310" width="60" height="25" fill="#4caf50" rx="3" ry="3"/><text x="250" y="325" font-family="Arial" font-size="10" text-anchor="middle" fill="#ffffff">Başvuruldu</text><rect x="420" y="310" width="60" height="25" fill="#ff9800" rx="3" ry="3"/><text x="450" y="325" font-family="Arial" font-size="10" text-anchor="middle" fill="#ffffff">Mülakat</text><rect x="110" y="380" width="80" height="80" fill="#ffffff" stroke="#cccccc" stroke-width="1"/><text x="150" y="410" font-family="Arial" font-size="12" text-anchor="middle" fill="#333333">13</text><rect x="210" y="380" width="80" height="80" fill="#ffffff" stroke="#cccccc" stroke-width="1"/><text x="250" y="410" font-family="Arial" font-size="12" text-anchor="middle" fill="#333333">14</text><rect x="310" y="380" width="80" height="80" fill="#ffffff" stroke="#cccccc" stroke-width="1"/><text x="350" y="410" font-family="Arial" font-size="12" text-anchor="middle" fill="#333333">15</text><rect x="120" y="400" width="60" height="25" fill="#2196f3" rx="3" ry="3"/><text x="150" y="415" font-family="Arial" font-size="10" text-anchor="middle" fill="#ffffff">İnceleniyor</text></svg>