<svg width="800" height="600" xmlns="http://www.w3.org/2000/svg"><rect width="800" height="600" fill="#f5f5f5"/><rect x="50" y="50" width="700" height="500" fill="#ffffff" stroke="#cccccc" stroke-width="2" rx="10" ry="10"/><text x="400" y="100" font-family="Arial" font-size="24" text-anchor="middle" fill="#333333">İş Eşleştirme Detay Görünümü</text><rect x="100" y="150" width="600" height="100" fill="#f9f9f9" stroke="#cccccc" stroke-width="1" rx="5" ry="5"/><text x="120" y="180" font-family="Arial" font-size="18" font-weight="bold" fill="#333333">Tam Yığın Geliştirici</text><text x="120" y="210" font-family="Arial" font-size="16" fill="#666666">TechCorp Inc. - Melbourne</text><text x="120" y="235" font-family="Arial" font-size="14" fill="#4caf50">%85 Eşleşme</text><rect x="550" y="175" width="120" height="40" fill="#4285f4" rx="5" ry="5"/><text x="610" y="200" font-family="Arial" font-size="16" text-anchor="middle" fill="#ffffff">Apply&Track</text><rect x="100" y="270" width="600" height="100" fill="#f9f9f9" stroke="#cccccc" stroke-width="1" rx="5" ry="5"/><text x="120" y="300" font-family="Arial" font-size="18" font-weight="bold" fill="#333333">Frontend Geliştirici</text><text x="120" y="330" font-family="Arial" font-size="16" fill="#666666">WebSolutions - Sydney</text><text x="120" y="355" font-family="Arial" font-size="14" fill="#4caf50">%78 Eşleşme</text><rect x="550" y="295" width="120" height="40" fill="#4285f4" rx="5" ry="5"/><text x="610" y="320" font-family="Arial" font-size="16" text-anchor="middle" fill="#ffffff">Apply&Track</text><rect x="100" y="390" width="600" height="100" fill="#f9f9f9" stroke="#cccccc" stroke-width="1" rx="5" ry="5"/><text x="120" y="420" font-family="Arial" font-size="18" font-weight="bold" fill="#333333">Backend Geliştirici</text><text x="120" y="450" font-family="Arial" font-size="16" fill="#666666">DataSystems - Brisbane</text><text x="120" y="475" font-family="Arial" font-size="14" fill="#4caf50">%72 Eşleşme</text><rect x="550" y="415" width="120" height="40" fill="#4285f4" rx="5" ry="5"/><text x="610" y="440" font-family="Arial" font-size="16" text-anchor="middle" fill="#ffffff">Apply&Track</text></svg>