<svg width="800" height="600" xmlns="http://www.w3.org/2000/svg"><rect width="800" height="600" fill="#f5f5f5"/><rect x="50" y="50" width="700" height="500" fill="#ffffff" stroke="#cccccc" stroke-width="2" rx="10" ry="10"/><text x="400" y="100" font-family="Arial" font-size="24" text-anchor="middle" fill="#333333">İş Başvuru Takipçisi - Başvurularım</text><rect x="100" y="150" width="600" height="50" fill="#f9f9f9" stroke="#cccccc" stroke-width="1"/><text x="120" y="180" font-family="Arial" font-size="16" font-weight="bold" fill="#333333">Pozisyon</text><text x="300" y="180" font-family="Arial" font-size="16" font-weight="bold" fill="#333333">Şirket</text><text x="450" y="180" font-family="Arial" font-size="16" font-weight="bold" fill="#333333">Durum</text><text x="600" y="180" font-family="Arial" font-size="16" font-weight="bold" fill="#333333">Tarih</text><rect x="100" y="210" width="600" height="70" fill="#ffffff" stroke="#e0e0e0" stroke-width="1"/><text x="120" y="240" font-family="Arial" font-size="14" fill="#333333">Tam Yığın Geliştirici</text><text x="120" y="260" font-family="Arial" font-size="12" fill="#666666">Melbourne</text><text x="300" y="240" font-family="Arial" font-size="14" fill="#333333">TechCorp Inc.</text><rect x="450" y="230" width="100" height="25" fill="#4caf50" rx="3" ry="3"/><text x="500" y="245" font-family="Arial" font-size="12" text-anchor="middle" fill="#ffffff">Başvuruldu</text><text x="600" y="240" font-family="Arial" font-size="14" fill="#333333">01.03.2025</text><rect x="100" y="290" width="600" height="70" fill="#ffffff" stroke="#e0e0e0" stroke-width="1"/><text x="120" y="320" font-family="Arial" font-size="14" fill="#333333">Frontend Geliştirici</text><text x="120" y="340" font-family="Arial" font-size="12" fill="#666666">Sydney</text><text x="300" y="320" font-family="Arial" font-size="14" fill="#333333">WebSolutions</text><rect x="450" y="310" width="100" height="25" fill="#ff9800" rx="3" ry="3"/><text x="500" y="325" font-family="Arial" font-size="12" text-anchor="middle" fill="#ffffff">Mülakat</text><text x="600" y="320" font-family="Arial" font-size="14" fill="#333333">28.02.2025</text><rect x="100" y="370" width="600" height="70" fill="#ffffff" stroke="#e0e0e0" stroke-width="1"/><text x="120" y="400" font-family="Arial" font-size="14" fill="#333333">Backend Geliştirici</text><text x="120" y="420" font-family="Arial" font-size="12" fill="#666666">Brisbane</text><text x="300" y="400" font-family="Arial" font-size="14" fill="#333333">DataSystems</text><rect x="450" y="390" width="100" height="25" fill="#2196f3" rx="3" ry="3"/><text x="500" y="405" font-family="Arial" font-size="12" text-anchor="middle" fill="#ffffff">İnceleniyor</text><text x="600" y="400" font-family="Arial" font-size="14" fill="#333333">25.02.2025</text><rect x="100" y="450" width="600" height="70" fill="#ffffff" stroke="#e0e0e0" stroke-width="1"/><text x="120" y="480" font-family="Arial" font-size="14" fill="#333333">UI/UX Tasarımcı</text><text x="120" y="500" font-family="Arial" font-size="12" fill="#666666">Melbourne</text><text x="300" y="480" font-family="Arial" font-size="14" fill="#333333">DesignHub</text><rect x="450" y="470" width="100" height="25" fill="#f44336" rx="3" ry="3"/><text x="500" y="485" font-family="Arial" font-size="12" text-anchor="middle" fill="#ffffff">Reddedildi</text><text x="600" y="480" font-family="Arial" font-size="14" fill="#333333">20.02.2025</text></svg>