<svg width="800" height="600" xmlns="http://www.w3.org/2000/svg"><rect width="800" height="600" fill="#f5f5f5"/><rect x="50" y="50" width="700" height="500" fill="#ffffff" stroke="#cccccc" stroke-width="2" rx="10" ry="10"/><text x="400" y="100" font-family="Arial" font-size="24" text-anchor="middle" fill="#333333">Beceri Analizi ve Öneriler</text><rect x="100" y="150" width="280" height="350" fill="#f9f9f9" stroke="#cccccc" stroke-width="1" rx="5" ry="5"/><text x="240" y="180" font-family="Arial" font-size="18" text-anchor="middle" font-weight="bold" fill="#333333">Beceriler</text><text x="120" y="220" font-family="Arial" font-size="16" fill="#333333">React</text><rect x="200" y="210" width="150" height="20" fill="#e0e0e0" rx="5" ry="5"/><rect x="200" y="210" width="120" height="20" fill="#4caf50" rx="5" ry="5"/><text x="330" y="225" font-family="Arial" font-size="12" fill="#333333">İleri</text><text x="120" y="260" font-family="Arial" font-size="16" fill="#333333">Node.js</text><rect x="200" y="250" width="150" height="20" fill="#e0e0e0" rx="5" ry="5"/><rect x="200" y="250" width="100" height="20" fill="#4caf50" rx="5" ry="5"/><text x="330" y="265" font-family="Arial" font-size="12" fill="#333333">Orta</text><text x="120" y="300" font-family="Arial" font-size="16" fill="#333333">MongoDB</text><rect x="200" y="290" width="150" height="20" fill="#e0e0e0" rx="5" ry="5"/><rect x="200" y="290" width="90" height="20" fill="#4caf50" rx="5" ry="5"/><text x="330" y="305" font-family="Arial" font-size="12" fill="#333333">Orta</text><text x="120" y="340" font-family="Arial" font-size="16" fill="#333333">TypeScript</text><rect x="200" y="330" width="150" height="20" fill="#e0e0e0" rx="5" ry="5"/><rect x="200" y="330" width="75" height="20" fill="#4caf50" rx="5" ry="5"/><text x="330" y="345" font-family="Arial" font-size="12" fill="#333333">Başlangıç</text><rect x="420" y="150" width="280" height="350" fill="#f9f9f9" stroke="#cccccc" stroke-width="1" rx="5" ry="5"/><text x="560" y="180" font-family="Arial" font-size="18" text-anchor="middle" font-weight="bold" fill="#333333">Öneriler</text><text x="440" y="220" font-family="Arial" font-size="14" fill="#333333">• Özgeçmişinize nicel başarılar ekleyin</text><text x="440" y="250" font-family="Arial" font-size="14" fill="#333333">• Beceri bölümünü React Native ile</text><text x="450" y="270" font-family="Arial" font-size="14" fill="#333333">  genişletin</text><text x="440" y="300" font-family="Arial" font-size="14" fill="#333333">• Daha fazla açık kaynak projeye</text><text x="450" y="320" font-family="Arial" font-size="14" fill="#333333">  katkıda bulunun</text><text x="440" y="350" font-family="Arial" font-size="14" fill="#333333">• AWS veya Azure sertifikaları alın</text></svg>